<svg width="28" height="28" viewBox="0 0 28 28" fill="none" xmlns="http://www.w3.org/2000/svg">
<g clip-path="url(#clip0_4_2)">
<g clip-path="url(#clip1_4_2)">
<path d="M22.2653 18.4222L22.2653 18.4222L14.1768 10.3337L14 10.1569L13.8232 10.3337L5.73472 18.4222C5.69021 18.4667 5.63738 18.502 5.57923 18.5261C5.52109 18.5502 5.45877 18.5626 5.39583 18.5626C5.33289 18.5626 5.27057 18.5502 5.21242 18.5261C5.15428 18.502 5.10144 18.4667 5.05694 18.4222C5.01243 18.3777 4.97713 18.3249 4.95305 18.2667C4.92896 18.2086 4.91656 18.1463 4.91656 18.0833C4.91656 18.0204 4.92896 17.9581 4.95305 17.8999C4.97713 17.8418 5.01243 17.7889 5.05694 17.7444L13.6611 9.14028L13.6611 9.14025C13.7056 9.09574 13.7585 9.06044 13.8166 9.03635C13.8747 9.01226 13.9371 8.99986 14 8.99986C14.0629 8.99986 14.1253 9.01226 14.1834 9.03635C14.2415 9.06044 14.2944 9.09574 14.3389 9.14025L14.3389 9.14028L22.9431 17.7444L22.9431 17.7445C22.9876 17.789 23.0229 17.8418 23.047 17.8999C23.0711 17.9581 23.0835 18.0204 23.0835 18.0833C23.0835 18.1463 23.0711 18.2086 23.047 18.2667C23.0229 18.3249 22.9876 18.3777 22.9431 18.4222L22.943 18.4222C22.8985 18.4668 22.8457 18.5021 22.7876 18.5261C22.7294 18.5502 22.6671 18.5626 22.6042 18.5626C22.5412 18.5626 22.4789 18.5502 22.4208 18.5261C22.3626 18.5021 22.3098 18.4668 22.2653 18.4222Z" fill="black" stroke="black" stroke-width="0.5"/>
</g>
</g>
<defs>
<clipPath id="clip0_4_2">
<rect width="28" height="28" fill="white"/>
</clipPath>
<clipPath id="clip1_4_2">
<rect width="28" height="28" fill="white"/>
</clipPath>
</defs>
</svg>
