<svg width="28" height="28" viewBox="0 0 28 28" fill="none" xmlns="http://www.w3.org/2000/svg">
<g clip-path="url(#clip0_4_9)">
<path d="M4.22001 9.47C4.36064 9.32955 4.55126 9.25066 4.75001 9.25066C4.94876 9.25066 5.13939 9.32955 5.28001 9.47L14 18.19L22.72 9.47C22.7887 9.39631 22.8715 9.33721 22.9635 9.29622C23.0555 9.25523 23.1548 9.23319 23.2555 9.23141C23.3562 9.22963 23.4562 9.24816 23.5496 9.28588C23.643 9.3236 23.7278 9.37974 23.799 9.45096C23.8703 9.52218 23.9264 9.60702 23.9641 9.7004C24.0019 9.79379 24.0204 9.89382 24.0186 9.99452C24.0168 10.0952 23.9948 10.1945 23.9538 10.2865C23.9128 10.3785 23.8537 10.4613 23.78 10.53L14.53 19.78C14.3894 19.9205 14.1988 19.9993 14 19.9993C13.8013 19.9993 13.6106 19.9205 13.47 19.78L4.22001 10.53C4.07956 10.3894 4.00067 10.1988 4.00067 10C4.00067 9.80125 4.07956 9.61063 4.22001 9.47Z" fill="black"/>
</g>
<defs>
<clipPath id="clip0_4_9">
<rect width="28" height="28" fill="white"/>
</clipPath>
</defs>
</svg>
