<svg width="18" height="16" viewBox="0 0 18 16" fill="none" xmlns="http://www.w3.org/2000/svg">
<path d="M0.670837 5.91667V1.33333C0.670837 1.11232 0.758635 0.900358 0.914915 0.744078C1.0712 0.587797 1.28316 0.5 1.50417 0.5H16.5042C16.7252 0.5 16.9371 0.587797 17.0934 0.744078C17.2497 0.900358 17.3375 1.11232 17.3375 1.33333V5.91667C16.785 5.91667 16.2551 6.13616 15.8644 6.52686C15.4737 6.91756 15.2542 7.44747 15.2542 8C15.2542 8.55253 15.4737 9.08244 15.8644 9.47314C16.2551 9.86384 16.785 10.0833 17.3375 10.0833V14.6667C17.3375 14.8877 17.2497 15.0996 17.0934 15.2559C16.9371 15.4122 16.7252 15.5 16.5042 15.5H1.50417C1.28316 15.5 1.0712 15.4122 0.914915 15.2559C0.758635 15.0996 0.670837 14.8877 0.670837 14.6667V10.0833C1.22337 10.0833 1.75328 9.86384 2.14398 9.47314C2.53468 9.08244 2.75417 8.55253 2.75417 8C2.75417 7.44747 2.53468 6.91756 2.14398 6.52686C1.75328 6.13616 1.22337 5.91667 0.670837 5.91667ZM10.6708 2.16667H2.3375V4.64C2.96351 4.95025 3.4904 5.42921 3.85876 6.02288C4.22712 6.61656 4.4223 7.30133 4.4223 8C4.4223 8.69867 4.22712 9.38344 3.85876 9.97712C3.4904 10.5708 2.96351 11.0498 2.3375 11.36V13.8333H10.6708V2.16667ZM12.3375 2.16667V13.8333H15.6708V11.36C15.0448 11.0498 14.5179 10.5708 14.1496 9.97712C13.7812 9.38344 13.586 8.69867 13.586 8C13.586 7.30133 13.7812 6.61656 14.1496 6.02288C14.5179 5.42921 15.0448 4.95025 15.6708 4.64V2.16667H12.3375Z" fill="#83A2C1"/>
</svg>
