<svg width="23" height="23" viewBox="0 0 23 23" fill="none" xmlns="http://www.w3.org/2000/svg">
<rect width="23" height="23" rx="11.5" fill="#83A2C1"/>
<path d="M11.2609 6.47969L12.5891 5.15157C12.9344 4.80623 13.3444 4.5323 13.7956 4.3454C14.2468 4.15851 14.7304 4.06232 15.2187 4.06232C15.7071 4.06232 16.1907 4.15851 16.6419 4.3454C17.0931 4.5323 17.5031 4.80623 17.8484 5.15157C18.1938 5.4969 18.4677 5.90688 18.6546 6.35808C18.8415 6.80928 18.9377 7.29288 18.9377 7.78126C18.9377 8.26963 18.8415 8.75323 18.6546 9.20443C18.4677 9.65564 18.1938 10.0656 17.8484 10.4109L15.1922 13.0672C14.8469 13.4126 14.4369 13.6865 13.9857 13.8734C13.5345 14.0603 13.0509 14.1565 12.5625 14.1565C12.0741 14.1565 11.5905 14.0603 11.1393 13.8734C10.6881 13.6865 10.2781 13.4126 9.93281 13.0672C9.79213 12.916 9.71552 12.7162 9.71908 12.5098C9.72265 12.3033 9.80612 12.1063 9.95194 11.9601C10.0981 11.8142 10.2952 11.7308 10.5016 11.7272C10.7081 11.7236 10.9079 11.8003 11.0591 11.9409C11.2563 12.1388 11.4906 12.2957 11.7486 12.4028C12.0066 12.5099 12.2832 12.5651 12.5625 12.5651C12.8418 12.5651 13.1184 12.5099 13.3764 12.4028C13.6344 12.2957 13.8687 12.1388 14.0659 11.9409L16.7222 9.28469C17.1015 8.88206 17.3091 8.34749 17.3008 7.79437C17.2926 7.24125 17.0692 6.7131 16.6781 6.32194C16.2869 5.93078 15.7588 5.70739 15.2056 5.69916C14.6525 5.69092 14.1179 5.89848 13.7153 6.27782L12.3872 7.60594C12.236 7.74663 12.0362 7.82324 11.8298 7.81967C11.6233 7.81611 11.4263 7.73264 11.2801 7.58682C11.1342 7.44062 11.0508 7.24358 11.0472 7.03711C11.0436 6.83065 11.1203 6.63085 11.2609 6.47969ZM6.27781 16.7222C6.47502 16.92 6.70934 17.077 6.96733 17.1841C7.22532 17.2912 7.50191 17.3463 7.78125 17.3463C8.06059 17.3463 8.33718 17.2912 8.59517 17.1841C8.85316 17.077 9.08747 16.92 9.28469 16.7222L10.6128 15.3941C10.764 15.2534 10.9638 15.1768 11.1702 15.1803C11.3767 15.1839 11.5737 15.2674 11.7199 15.4132C11.8658 15.5594 11.9492 15.7564 11.9528 15.9629C11.9564 16.1694 11.8797 16.3692 11.7391 16.5203L10.4109 17.8484C10.0656 18.1938 9.65563 18.4677 9.20443 18.6546C8.75322 18.8415 8.26963 18.9377 7.78125 18.9377C7.29287 18.9377 6.80927 18.8415 6.35807 18.6546C5.90687 18.4677 5.4969 18.1938 5.15156 17.8484C4.80623 17.5031 4.53229 17.0931 4.3454 16.6419C4.1585 16.1907 4.06231 15.7071 4.06231 15.2188C4.06231 14.7304 4.1585 14.2468 4.3454 13.7956C4.53229 13.3444 4.80623 12.9344 5.15156 12.5891L7.80781 9.93282C8.15313 9.58746 8.5631 9.31351 9.01431 9.1266C9.46551 8.93969 9.94911 8.84349 10.4375 8.84349C10.9259 8.84349 11.4095 8.93969 11.8607 9.1266C12.3119 9.31351 12.7219 9.58746 13.0672 9.93282C13.2079 10.084 13.2845 10.2838 13.2809 10.4902C13.2773 10.6967 13.1939 10.8937 13.0481 11.0399C12.9019 11.1858 12.7048 11.2692 12.4984 11.2728C12.2919 11.2764 12.0921 11.1998 11.9409 11.0591C11.7437 10.8612 11.5094 10.7043 11.2514 10.5972C10.9934 10.4901 10.7168 10.435 10.4375 10.435C10.1582 10.435 9.88157 10.4901 9.62358 10.5972C9.36559 10.7043 9.13127 10.8612 8.93406 11.0591L6.27781 13.7153C6.07998 13.9125 5.92302 14.1468 5.81592 14.4048C5.70882 14.6628 5.65369 14.9394 5.65369 15.2188C5.65369 15.4981 5.70882 15.7747 5.81592 16.0327C5.92302 16.2907 6.07998 16.525 6.27781 16.7222Z" fill="white"/>
</svg>
