<svg width="20" height="20" viewBox="0 0 20 20" fill="none" xmlns="http://www.w3.org/2000/svg">
<g clip-path="url(#clip0_1_2)">
<path d="M8.57583 7.91666C8.38089 7.91655 8.18785 7.95487 8.00773 8.02942C7.82761 8.10396 7.66396 8.21328 7.52612 8.35112C7.38828 8.48896 7.27896 8.65262 7.20441 8.83274C7.12986 9.01285 7.09155 9.2059 7.09166 9.40083C7.09166 11.0417 9.90416 12.9167 9.90416 12.9167C9.90416 12.9167 12.7167 11.0417 12.7167 9.40083C12.7167 8.385 12.0525 7.91666 11.2325 7.91666C10.6508 7.91666 10.1475 8.25 9.90416 8.7375C9.78089 8.49076 9.5913 8.28326 9.35667 8.13827C9.12203 7.99328 8.85164 7.91654 8.57583 7.91666Z" stroke="#83A2C1" stroke-width="1.5" stroke-linecap="round" stroke-linejoin="round"/>
<path d="M10 17.5C14.1421 17.5 17.5 14.1421 17.5 10C17.5 5.85786 14.1421 2.5 10 2.5C5.85786 2.5 2.5 5.85786 2.5 10C2.5 14.1421 5.85786 17.5 10 17.5Z" stroke="#83A2C1" stroke-width="1.5" stroke-linecap="round" stroke-linejoin="round"/>
</g>
<defs>
<clipPath id="clip0_1_2">
<rect width="20" height="20" fill="white"/>
</clipPath>
</defs>
</svg>
